<?xml version="1.0" encoding="utf-8"?>
<!-- Generator: Adobe Illustrator 22.0.1, SVG Export Plug-In . SVG Version: 6.00 Build 0)  -->
<svg version="1.1" id="Layer_1" xmlns="http://www.w3.org/2000/svg" xmlns:xlink="http://www.w3.org/1999/xlink" x="0px" y="0px"
	 viewBox="0 0 640 480" style="enable-background:new 0 0 640 480;" xml:space="preserve">
<style type="text/css">
	.st0{fill:#028C9B;}
</style>
<g>
	<path class="st0" d="M153.2,118.8c16.8-2.1,36.8-3.7,58.6-3.7c39.6,0,67.8,7.6,86.5,22c19,14.4,30.1,34.8,30.1,63.3
		c0,28.8-10.8,52.3-30.7,68.5c-20,16.5-52.9,25.4-94.4,25.4c-19.7,0-36.1-0.8-50.1-2.1V118.8z M180.8,274.6c7,1,17.1,1.3,27.9,1.3
		c59,0,91-27.2,91-74.8c0.3-41.6-28.2-68-86.5-68c-14.3,0-25,1-32.3,2.4V274.6z"/>
</g>
<g>
	<g>
		<path class="st0" d="M244,289.3c4.6-0.9,10.1-1.6,16-1.6c10.8,0,18.6,3.2,23.7,9.4c5.2,6.2,8.3,15,8.3,27.3
			c0,12.4-2.9,22.6-8.3,29.6c-5.4,7.1-14.5,11-25.8,11c-5.4,0-9.9-0.3-13.7-0.9L244,289.3z M251.6,356.6c1.9,0.4,4.7,0.6,7.6,0.6
			c16.1,0,24.9-11.8,24.8-32.4c0.1-18-7.8-29.4-23.7-29.3c-3.9,0-6.8,0.5-8.8,1L251.6,356.6z"/>
		<path class="st0" d="M332,328.6l-22.7,0l0.1,27.5l25.3,0l0,8.2l-32.8,0.1l-0.1-76.2l31.5-0.1l0,8.2l-24,0l0,24.1l22.7,0L332,328.6
			z"/>
		<path class="st0" d="M358.1,364.2l-19.2-76.1l8.1,0l9.2,37.5c2.5,10.3,4.7,19.5,6.3,28.5h0.2c1.6-8.8,4-18.4,6.6-28.4l9.8-37.7
			l8.1,0l-20.7,76.2L358.1,364.2z"/>
	</g>
</g>
<g>
	<g>
		<path class="st0" d="M487.5,294.3c-10.1,4.2-30.4,8.4-56.4,8.4c-60.2,0-105.5-31.4-105.5-89.1c0-55.1,45.3-92.5,111.6-92.5
			c26.6,0,43.4,4.7,50.7,7.8l-6.7,18.6c-10.5-4.2-25.4-7.3-43.1-7.3c-50.1,0-83.4,26.4-83.4,72.7c0,43.1,30.1,70.8,82.1,70.8
			c16.8,0,33.9-2.9,45-7.3L487.5,294.3z"/>
	</g>
</g>
<polyline class="st0" points="96.6,54.7 94.7,199.8 121.2,200.2 123,55 96.6,54.7 "/>
<polyline class="st0" points="97,80 242,80 242,54 97,54 "/>
<rect x="92" y="400" class="st0" width="145" height="26"/>
<rect x="32.3" y="340.2" transform="matrix(1.265721e-02 -0.9999 0.9999 1.265721e-02 -249.8513 453.7934)" class="st0" width="145.2" height="26.4"/>
<rect x="462.3" y="114.2" transform="matrix(1.265721e-02 -0.9999 0.9999 1.265721e-02 400.688 660.6194)" class="st0" width="145.2" height="26.4"/>
<rect x="403" y="54" class="st0" width="145" height="26"/>
<rect x="463.3" y="340.2" transform="matrix(1.265721e-02 -0.9999 0.9999 1.265721e-02 175.6935 884.7589)" class="st0" width="145.2" height="26.4"/>
<rect x="403" y="400" class="st0" width="145" height="26"/>
</svg>
